/* XPM */
static const char *tsnsoft_xpm[] = {
/* columns rows colors chars-per-pixel */
"32 32 217 2",
"x. c Black",
"=  c #989699",
"9. c #B1B0B3",
"{. c #57535C",
"(  c #C0BFC2",
"qX c #7F7C85",
"P. c #3C3C3C",
"#. c #CFCED2",
"L  c #C5C3C6",
"(. c #3C3C3E",
"0  c #A29EA4",
"-. c #D9D6DB",
"4  c #A7A2A9",
"I  c #B4B4B6",
"m  c #9B9A9E",
"f  c #B4B4B8",
"C. c #B9B8BC",
"q. c #C8C7C9",
"x  c #BEBCC0",
"   c #FFFFFF",
"s. c #CDCBCF",
"F  c #C3C0C3",
"]. c #5A5460",
"<X c #535355",
"6X c #6E6771",
"+X c #645C67",
")  c #F5F1F5",
"O  c #8F8F93",
":  c #BCBCBC",
"H  c #A3A2A5",
"D  c #A3A2A7",
"p. c #C1C0C2",
"2. c #B7B5B7",
"E  c #B7B5B9",
"A. c #4E4955",
"N. c #4C4C4C",
",  c #B2AEB4",
">. c #DAD7DB",
"0X c #6A6A6E",
">  c #888888",
"&. c #F8F5FA",
"#X c #6F6E73",
"Y. c #716875",
"n  c #B5B5B8",
";  c #929093",
"n. c #ABAAAD",
"l. c #514D57",
"XX c #514D58",
"Y  c #B0AEB3",
"/  c #D8D7DB",
"c  c #A6A3A9",
"u. c #636363",
"{  c #D3D0D5",
"r. c #D3D0D6",
"e. c #E2DFE4",
"u  c #B0ABB2",
".X c #655D69",
"|  c #D8D4DA",
"%  c #909093",
"C  c #A9A7AD",
"-X c #3E3E3E",
"t. c #C7C5C8",
";. c #D1D0D4",
"B. c #000500",
"a. c #CCC9CD",
":X c #6B6B6D",
"c. c #908A95",
"=. c #E0DCE2",
"O. c #E0DCE3",
"&X c #666467",
"D. c #393740",
"`. c #706F74",
"%X c #848284",
"w. c #A7A7A9",
"K. c #75737A",
"1  c #939197",
"y. c #BBBABE",
"M. c #CAC9CC",
"G  c #BBBABF",
" . c #CFCDD0",
"^  c #DEDCDF",
"8. c #6B656F",
"Q. c #7A747F",
"G. c #706973",
"eX c #737377",
"v. c #8E8791",
"j. c #A0A0A1",
"o  c #919194",
"t  c #AFAFB2",
"k  c #AFAFB3",
"w  c #A5A4A9",
"l  c #B4B3B7",
"|. c #9D93A0",
"e  c #A09DA2",
"q  c #AAA8AE",
"@  c #AFACAF",
"i. c #C8C6CA",
"}  c #6C6C6C",
"7. c #1A1D1A",
">X c #676567",
"). c #695F6B",
",. c #E6E1E8",
"<. c #E6E1E9",
"F. c #4E4B54",
"*  c #B7B7B9",
"[. c #4E4B56",
"V  c #ADACAF",
";X c #716D73",
"&  c #A3A1A5",
"P  c #BCBBBF",
"7  c #A3A1A7",
"4. c #CBCACE",
"T  c #474747",
"_  c #DFDDDF",
"d  c #C6C3C8",
"m. c #656565",
"5. c #D5D2D6",
"z  c #C6C3C9",
"h  c #ADA9B0",
"9  c #BCB8BE",
"+. c #EEECF1",
"@X c #474447",
"L. c #3D3C45",
"oX c #42404A",
"Z  c #040404",
"]  c #BFBFC3",
"Q  c #ABA9AE",
".. c #C9C7CC",
"p  c #BFBCC0",
"s  c #A6A2A8",
"}. c #746E78",
"U. c #6F6773",
"B  c #9A9A9B",
"M  c #A4A2A4",
"$  c #959397",
"N  c #A4A2A5",
"'. c #59545E",
"$. c #CCCBCF",
"<  c #9A979E",
"W. c #68636D",
"2X c #48484A",
"*. c #CCC8CC",
"#  c #939395",
"U  c #B1B1B4",
"=X c #6B676B",
"[  c #C5C4C7",
"'  c #C5C4C8",
"W  c #ACAAAF",
"^. c #7A767E",
"OX c #414141",
"!  c #C0BDC0",
"I. c #5C555F",
",X c #5F5F61",
"6. c #DEDBE0",
"1X c #706872",
"8X c #737277",
"3X c #737278",
"X  c #9B9B9F",
"rX c #78767E",
"+  c #969498",
"$X c #55515A",
"0. c #BEBDBF",
"g. c #BEBDC0",
"v  c #A5A3A8",
"S  c #A5A3A9",
"h. c #C3C1C5",
"K  c #D2D0D2",
"5  c #9B989F",
"9X c #5F5963",
"H. c #918A93",
"R. c #6C6B70",
"y  c #99989E",
"6  c #9E9CA2",
"o. c #DAD8DA",
"r  c #C1BEC2",
"2  c #B2AFB5",
"a  c #A8A4AA",
"5X c #606062",
"b  c #C6C2C7",
"8  c #C6C2C8",
"4X c #625A65",
":. c #7E7E7E",
"J. c #807882",
"f. c #ABABAC",
"S. c #423F4A",
"j  c #A1A0A5",
"k. c #1D1D1D",
"~  c #BFBEC2",
"3. c #CECDD1",
"!. c #9E93A2",
"i  c #BAB7BC",
"@. c #D8D5D9",
".  c #686868",
"T. c #655E6B",
"3  c #CECAD0",
"1. c #DDD9DE",
"*X c #636165",
"/. c #45434D",
"~. c #8D848F",
"g  c #9A999E",
"Z. c #161616",
"b. c #B8B7BA",
"R  c #BDBBBD",
"wX c #343434",
"X. c #C7C6CA",
"V. c #CCCACC",
"A  c #BDBBBF",
"_. c #2F2D2F",
"`  c #DBD9DE",
"J  c #E0DDE1",
"7X c #4D4B4D",
"%. c #D6D2D7",
" X c #726A74",
"z. c #66656B",
"d. c #ACACAC",
"E. c #4D4B54",
"-  c #939295",
/* pixels */
"                                                                ",
"                                                                ",
"                                                                ",
"                                                                ",
"                                                                ",
"                                                                ",
"                                                                ",
"          . X o O + @     # $ % # &     * = - ; + :             ",
"          > , < 1 2 3     4 5 6 7 8     9 0 q w e r             ",
"              t y         u i           p a     s d             ",
"              f g         h j k l z     x c     v b             ",
"              n m         M N B V C Z   A S     D F             ",
"              G H     J K L P I U Y T R E W     Q ! ~ ^         ",
"              / (     ) _ ` ' ] [ { } |  ...    X.o.O.+.        ",
"                                                                ",
"            @.#.$.%.&.*.=.-.{ ;.:.>.,.<.1.2.3.4.5.6.            ",
"          7.8.9.0.q.w.e.r.0.t.y.u.i.p.a.s.d.f.g.h.j.            ",
"          k.l.z.x.x.x.c.v.x.b.n.m.M.N.x.B.    V.C.              ",
"          Z.A.S.D.F.G.H.J.x.K.L.P.I.U.Y.T.    R.E.              ",
"                  W.Q.!.~.x.^./.(.)._.        `.'.              ",
"            ].[./.{.}.|. X.XXXoXOX+X@X        #X$X              ",
"            %X&X*X=X-X  ;X:X>X,X<X1X2X        3X4X              ",
"                                5X6X7X        8X9X              ",
"                                0XqXwX        eXrX              ",
"                                                                ",
"                                                                ",
"                                                                ",
"                                                                ",
"                                                                ",
"                                                                ",
"                                                                ",
"                                                                "
};
